<?xml version="1.0" encoding="utf-8"?>
<!-- Generator: Adobe Illustrator 26.0.2, SVG Export Plug-In . SVG Version: 6.00 Build 0)  -->
<svg version="1.1" id="icon_x5F_close_x5F_wrapper" xmlns="http://www.w3.org/2000/svg" xmlns:xlink="http://www.w3.org/1999/xlink"
	 x="0px" y="0px" viewBox="0 0 32 32" style="enable-background:new 0 0 32 32;" xml:space="preserve">
<style type="text/css">
	.st0{fill:#FFFFFF;}
</style>
<path id="icon_x5F_close" class="st0" d="M18.3,16L31.5,2.9c0.6-0.6,0.6-1.6,0-2.3c-0.6-0.6-1.7-0.6-2.3,0L16.1,13.8L2.8,0.5
	c-0.6-0.6-1.7-0.6-2.3,0c-0.6,0.6-0.6,1.7,0,2.3L13.8,16L0.5,29.3c-0.6,0.6-0.6,1.6,0,2.3c0.6,0.6,1.7,0.6,2.3,0L16,18.3l13.2,13.2
	c0.6,0.6,1.7,0.6,2.3,0c0.6-0.6,0.6-1.7,0-2.3L18.3,16z"/>
</svg>
