<?xml version="1.0" encoding="utf-8"?>
<!-- Generator: Adobe Illustrator 26.0.2, SVG Export Plug-In . SVG Version: 6.00 Build 0)  -->
<svg version="1.1" id="레이어_1" xmlns="http://www.w3.org/2000/svg" xmlns:xlink="http://www.w3.org/1999/xlink" x="0px"
	 y="0px" viewBox="0 0 40 35" style="enable-background:new 0 0 40 35;" xml:space="preserve">
<style type="text/css">
	.icon-date-st0{display:none;}
	.icon-date-icon-date-st1{display:inline;fill:#FFFFFF;}
	.icon-date-st2{display:inline;}
	.icon-date-st3{fill:#FFFFFF;}
</style>
	<g class="icon-date-st0">
		<path class="icon-date-icon-date-st1" d="M35.6,7.2v-3c0-1.2-1-2.2-2.2-2.2h-3.8c-0.4,0-0.8-0.3-0.8-0.8h-0.8v1.5c0,0.4-0.3,0.8-0.8,0.8
			s-0.8-0.3-0.8-0.8V1.2h-0.8c0,0.4-0.3,0.8-0.8,0.8h-4.5c-0.4,0-0.8-0.3-0.8-0.8h-0.8v1.5c0,0.4-0.3,0.8-0.8,0.8s-0.8-0.3-0.8-0.8
			V1.2h-0.8c0,0.4-0.3,0.8-0.8,0.8h-4.5c-0.4,0-0.8-0.3-0.8-0.8h-0.8v1.5c0,0.4-0.3,0.8-0.8,0.8S8.6,3.1,8.6,2.7V1.2H7.9
			C7.9,1.6,7.5,2,7.1,2H3.4C2.1,2,1.1,3,1.1,4.2v3H35.6z"/>
		<g class="icon-date-st2">
			<path class="icon-date-st3" d="M23.7,26.7c0,4.2,3.4,7.6,7.6,7.6c4.2,0,7.6-3.4,7.6-7.6s-3.4-7.6-7.6-7.6C27.1,19.2,23.7,22.5,23.7,26.7z"
				/>
			<path class="icon-date-st3" d="M22.2,26.7c0-5,4.1-9.1,9.1-9.1c1.9,0,3.7,0.6,5.1,1.6v-1.5c-0.4,0-0.8-0.3-0.8-0.8V8.7H1.1v18
				c0,1.2,1,2.2,2.2,2.2h17.2c0.4,0,0.8,0.3,0.8,0.8h1.3C22.4,28.8,22.2,27.8,22.2,26.7z M33.4,14.1c0,2-3,2-3,0
				S33.4,12.1,33.4,14.1z M28.1,14.1c0,2-3,2-3,0S28.1,12.1,28.1,14.1z M22.9,14.1c0,2-3,2-3,0S22.9,12.1,22.9,14.1z M4.1,24.6
				c0-2,3-2,3,0S4.1,26.6,4.1,24.6z M4.1,19.4c0-2,3-2,3,0S4.1,21.4,4.1,19.4z M9.4,24.6c0-2,3-2,3,0S9.4,26.6,9.4,24.6z M9.4,19.4
				c0-2,3-2,3,0S9.4,21.4,9.4,19.4z M14.6,24.6c0-2,3-2,3,0S14.6,26.6,14.6,24.6z M14.6,19.4c0-2,3-2,3,0S14.6,21.4,14.6,19.4z
				 M14.6,14.1c0-2,3-2,3,0S14.6,16.1,14.6,14.1z M19.9,19.4c0-2,3-2,3,0S19.9,21.4,19.9,19.4z"/>
		</g>
	</g>
	<g>
		<path class="icon-date-st3" d="M35.6,7.2v-3c0-1.2-1-2.2-2.2-2.2h-3.8c-0.4,0-0.8-0.3-0.8-0.8h-0.8v1.5c0,0.4-0.3,0.8-0.8,0.8
			s-0.8-0.3-0.8-0.8V1.2h-0.8c0,0.4-0.3,0.8-0.8,0.8h-4.5c-0.4,0-0.8-0.3-0.8-0.8h-0.8v1.5c0,0.4-0.3,0.8-0.8,0.8s-0.8-0.3-0.8-0.8
			V1.2h-0.8c0,0.4-0.3,0.8-0.8,0.8h-4.5c-0.4,0-0.8-0.3-0.8-0.8h-0.8v1.5c0,0.4-0.3,0.8-0.8,0.8S8.6,3.1,8.6,2.7V1.2H7.9
			C7.9,1.6,7.5,2,7.1,2H3.4C2.1,2,1.1,3,1.1,4.2v3H35.6z"/>
		<g>
			<path class="icon-date-st3" d="M31.3,19.2c-4.2,0-7.6,3.4-7.6,7.6s3.4,7.6,7.6,7.6c4.2,0,7.6-3.4,7.6-7.6S35.5,19.2,31.3,19.2z M36.1,31
				c-0.3,0.3-0.8,0.3-1.1,0l-4.3-3.9c0,0-0.1-0.1-0.1-0.2c-0.1-0.1-0.1-0.2-0.1-0.3c0-0.1,0-0.2,0-0.3c0,0,0,0,0-0.1
				c0-0.1,0-0.1,0.1-0.2l2-3.5c0.2-0.4,0.7-0.5,1-0.3s0.5,0.7,0.3,1l-1.7,3l3.8,3.5C36.3,30.2,36.4,30.7,36.1,31z"/>
			<path class="icon-date-st3" d="M22.2,26.7c0-5,4.1-9.1,9.1-9.1c1.9,0,4.3-0.3,4.3-0.7V8.7H1.1v18c0,1.2,1,2.2,2.2,2.2h17.2
				C21,29,22.2,27.8,22.2,26.7z M33.4,14.1c0,2-3,2-3,0S33.4,12.1,33.4,14.1z M28.1,14.1c0,2-3,2-3,0S28.1,12.1,28.1,14.1z
				 M22.9,14.1c0,2-3,2-3,0S22.9,12.1,22.9,14.1z M4.1,24.6c0-2,3-2,3,0S4.1,26.6,4.1,24.6z M4.1,19.4c0-2,3-2,3,0
				S4.1,21.4,4.1,19.4z M9.4,24.6c0-2,3-2,3,0S9.4,26.6,9.4,24.6z M9.4,19.4c0-2,3-2,3,0S9.4,21.4,9.4,19.4z M14.6,24.6c0-2,3-2,3,0
				S14.6,26.6,14.6,24.6z M14.6,19.4c0-2,3-2,3,0S14.6,21.4,14.6,19.4z M14.6,14.1c0-2,3-2,3,0S14.6,16.1,14.6,14.1z M19.9,19.4
				c0-2,3-2,3,0S19.9,21.4,19.9,19.4z"/>
		</g>
	</g>
</svg>
